<svg xmlns="http://www.w3.org/2000/svg" viewBox="0 0 512 512">
  <!-- Background -->
  <rect width="512" height="512" rx="100" fill="#FFF0E8"/>
  <!-- Hibiscus flower 🌺 rendered as SVG paths -->
  <!-- Petals -->
  <ellipse cx="256" cy="140" rx="52" ry="95" fill="#E8324A" transform="rotate(0, 256, 256)"/>
  <ellipse cx="256" cy="140" rx="52" ry="95" fill="#D42840" transform="rotate(72, 256, 256)"/>
  <ellipse cx="256" cy="140" rx="52" ry="95" fill="#E8324A" transform="rotate(144, 256, 256)"/>
  <ellipse cx="256" cy="140" rx="52" ry="95" fill="#D42840" transform="rotate(216, 256, 256)"/>
  <ellipse cx="256" cy="140" rx="52" ry="95" fill="#E8324A" transform="rotate(288, 256, 256)"/>
  <!-- Center -->
  <circle cx="256" cy="256" r="52" fill="#F5A623"/>
  <circle cx="256" cy="256" r="32" fill="#E8705A"/>
  <!-- Stamen dots -->
  <circle cx="256" cy="220" r="7" fill="#FFF0E8"/>
  <circle cx="275" cy="228" r="6" fill="#FFF0E8"/>
  <circle cx="278" cy="250" r="6" fill="#FFF0E8"/>
  <circle cx="264" cy="268" r="6" fill="#FFF0E8"/>
  <circle cx="245" cy="268" r="6" fill="#FFF0E8"/>
  <circle cx="234" cy="250" r="6" fill="#FFF0E8"/>
  <circle cx="237" cy="228" r="6" fill="#FFF0E8"/>
</svg>
